HIERARCHY
ROOT hip
{
	OFFSET 0.000000 0.000000 0.000000 
	CHANNELS 6 Xposition Yposition Zposition Xrotation Zrotation Yrotation
	JOINT abdomen
	{
		OFFSET 0.000000 3.402643 0.000000 
		CHANNELS 3 Xrotation Zrotation Yrotation
		JOINT chest
		{
			OFFSET 0.000000 8.438565 -0.680529 
			CHANNELS 3 Xrotation Zrotation Yrotation
			JOINT neck
			{
				OFFSET 0.000000 10.207942 -0.272212 
				CHANNELS 3 Xrotation Zrotation Yrotation
				JOINT head
				{
					OFFSET 0.000000 3.130431 0.000000 
					CHANNELS 3 Xrotation Zrotation Yrotation
					End Site
					{
						OFFSET 0.000000 3.130435 0.000000 
					}
				}
			}
			JOINT lCollar
			{
				OFFSET 3.470700 6.669187 -0.816635 
				CHANNELS 3 Yrotation Zrotation Xrotation
				JOINT lShldr
				{
					OFFSET 3.198488 0.000000 0.000000 
					CHANNELS 3 Zrotation Yrotation Xrotation
					JOINT lForeArm
					{
						OFFSET 10.139888 0.000000 0.000000 
						CHANNELS 3 Yrotation Zrotation Xrotation
						JOINT lHand
						{
							OFFSET 8.370511 0.000000 0.000000 
							CHANNELS 3 Zrotation Yrotation Xrotation
							End Site
							{
								OFFSET 4.083176 0.000000 0.000000 
							}
						}
					}
				}
			}
			JOINT rCollar
			{
				OFFSET -3.470700 6.669187 -0.816635 
				CHANNELS 3 Yrotation Zrotation Xrotation
				JOINT rShldr
				{
					OFFSET -3.198488 0.000000 0.000000 
					CHANNELS 3 Zrotation Yrotation Xrotation
					JOINT rForeArm
					{
						OFFSET -10.139888 0.000000 0.000000 
						CHANNELS 3 Yrotation Zrotation Xrotation
						JOINT rHand
						{
							OFFSET -8.370511 0.000000 0.000000 
							CHANNELS 3 Zrotation Yrotation Xrotation
							End Site
							{
								OFFSET -4.083176 0.000000 0.000000 
							}
						}
					}
				}
			}
		}
	}
	JOINT lThigh
	{
		OFFSET 5.308129 -1.633274 1.361059 
		CHANNELS 3 Xrotation Zrotation Yrotation
		JOINT lShin
		{
			OFFSET -2.041588 -20.007561 0.000000 
			CHANNELS 3 Xrotation Zrotation Yrotation
			JOINT lFoot
			{
				OFFSET 0.000000 -19.190928 -1.224953 
				CHANNELS 3 Xrotation Yrotation Zrotation
				End Site
				{
					OFFSET 0.000000 -2.449906 4.627600 
				}
			}
		}
	}
	JOINT rThigh
	{
		OFFSET -5.308129 -1.633274 1.361059 
		CHANNELS 3 Xrotation Zrotation Yrotation
		JOINT rShin
		{
			OFFSET 2.041588 -20.007561 0.000000 
			CHANNELS 3 Xrotation Zrotation Yrotation
			JOINT rFoot
			{
				OFFSET 0.000000 -19.190928 -1.224953 
				CHANNELS 3 Xrotation Yrotation Zrotation
				End Site
				{
					OFFSET 0.000000 -2.449906 4.627600 
				}
			}
		}
	}
}
MOTION
Frames: 11
Frame Time: 0.016667
0.175947 47.508266 8.894548 -24.271883 -2.462537 -4.662703 24.605080 4.912572 -0.648176 0.315105 1.278462 -3.096059 -4.316924 8.222573 -0.554071 2.330025 1.093128 10.920056 -5.036134 -4.264417 -0.217890 -63.464634 30.228611 -30.714487 -49.876427 -2.473463 0.706590 -28.896627 8.331221 24.656843 -3.609171 5.620632 -0.299312 60.747921 -26.395018 -29.063961 57.980396 -5.000000 -5.278895 10.029674 -25.453539 14.800397 12.526199 20.219078 1.655511 66.619736 -1.506962 -3.772900 -34.267670 11.661411 -11.895059 23.209116 -15.992306 1.826287 45.823502 8.975002 10.193569 -42.224991 -23.777714 -4.203067 
0.184442 47.161087 9.105874 -24.312494 -2.579444 -4.633875 24.603683 5.182846 -0.721089 0.300802 1.346700 -3.242739 -4.536460 8.403104 -0.600928 2.224784 1.343743 10.627999 -5.320030 -4.439962 -0.226938 -62.897251 29.563883 -29.847164 -49.680416 -1.515182 -0.117789 -28.660173 8.540019 24.406939 -3.867851 6.498399 -0.344707 59.597431 -25.925787 -28.470665 57.890633 -5.000000 -5.312026 10.562418 -25.596680 14.272103 11.919286 20.441488 1.438055 68.477661 -1.350814 -3.747671 -34.795536 11.469796 -11.695342 22.524780 -15.894446 1.380282 48.180340 8.349986 10.285187 -42.959843 -23.894615 -4.091055 
0.194103 46.794392 9.321633 -24.349478 -2.725450 -4.634340 24.590929 5.474981 -0.796115 0.276283 1.414918 -3.389189 -4.696161 8.585091 -0.638213 2.163121 1.575439 10.365423 -5.574657 -4.615509 -0.235984 -62.378635 28.913069 -29.037935 -49.530064 -0.510048 -0.992174 -28.358097 8.647121 24.127007 -4.116048 7.376159 -0.391274 58.507545 -25.457556 -27.945843 57.908577 -5.000000 -5.330311 11.049866 -25.773560 13.753230 11.296947 20.709213 1.232777 70.365005 -1.204513 -3.707288 -35.340805 11.279355 -11.520247 21.826752 -15.790312 0.934911 50.547291 7.699699 10.343283 -43.701237 -23.973640 -3.906940 
0.210092 46.404366 9.547295 -24.408123 -2.910024 -4.723095 24.589676 5.810830 -0.822142 0.272217 1.473396 -3.516363 -4.755383 8.769999 -0.656397 2.188770 1.807215 10.151856 -5.819801 -4.849569 -0.248041 -61.902252 28.338802 -28.374788 -49.481461 0.483864 -1.843546 -28.028961 8.507192 23.660051 -4.324835 8.205147 -0.435520 57.519592 -25.017019 -27.481298 58.121986 -5.000000 -5.327562 11.203094 -25.931349 13.426166 10.732291 21.014635 1.077888 72.298882 -1.068133 -3.721405 -35.768497 11.064450 -11.336293 21.098776 -15.660092 0.669957 52.967319 7.031035 10.293358 -44.390877 -24.029852 -3.784197 
0.231241 45.993221 9.780593 -24.477636 -3.133063 -4.900192 24.610386 6.187099 -0.787731 0.268011 1.531866 -3.643289 -4.725221 8.956367 -0.665044 2.312783 2.038846 10.006461 -6.026161 -5.132391 -0.263478 -61.442593 27.870529 -27.837063 -49.535538 1.454425 -2.659062 -27.676773 8.104898 23.004328 -4.494319 8.985360 -0.475899 56.654964 -24.588537 -27.109316 58.540348 -5.000000 -5.312102 11.046737 -26.062784 13.261487 10.181483 21.358383 0.989879 74.310791 -0.941315 -3.734780 -36.112240 10.760943 -11.197402 20.349890 -15.544908 0.540979 55.403198 6.318059 10.157621 -45.116039 -23.967478 -3.695496 
0.257342 45.566498 10.029112 -24.544899 -3.365680 -5.077367 24.639658 6.567218 -0.762728 0.264354 1.580583 -3.770214 -4.693467 9.144196 -0.664171 2.433949 2.261051 9.861566 -6.232593 -5.415215 -0.278084 -60.991234 27.387285 -27.304218 -49.565582 2.433453 -3.480124 -27.318708 7.716627 22.354300 -4.663129 9.775321 -0.518351 55.796192 -24.166876 -26.750151 58.970104 -5.000000 -5.288043 10.886432 -26.197393 13.110804 9.655983 21.703932 0.909726 76.292122 -0.785460 -3.749859 -36.489468 10.517162 -11.031289 19.605347 -15.415771 0.391942 57.860806 5.614376 9.996719 -45.831245 -23.955812 -3.645036 
0.289166 45.123722 10.297955 -24.663530 -3.627025 -5.303958 24.630037 7.013457 -0.722485 0.242745 1.609818 -3.829066 -4.522975 9.304516 -0.649411 2.779600 2.541041 9.736389 -6.449119 -5.746799 -0.295199 -60.481312 27.082863 -26.847767 -49.751503 3.134812 -4.039929 -27.390841 7.591442 21.891148 -4.734935 10.438485 -0.554404 55.026043 -23.967596 -26.537973 59.527756 -5.000000 -5.105556 10.838954 -26.280544 12.838077 9.277278 22.098503 0.912241 78.274170 -0.648939 -3.746438 -36.868057 10.209440 -10.931992 18.910896 -15.268801 0.532733 60.315823 4.940653 9.724259 -46.606228 -23.973236 -3.776339 
0.326025 44.668621 10.585921 -24.780081 -3.888124 -5.530664 24.629076 7.454157 -0.694685 0.221107 1.639051 -3.887647 -4.363706 9.463375 -0.642600 3.122398 2.811600 9.611416 -6.665693 -6.068631 -0.311800 -59.982414 26.782200 -26.406210 -49.931152 3.830357 -4.594993 -27.468756 7.477146 21.422337 -4.815973 11.111396 -0.589227 54.262890 -23.757135 -26.332575 60.075462 -5.000000 -4.927302 10.792545 -26.364796 12.561587 8.914276 22.475109 0.922950 80.256706 -0.512536 -3.720129 -37.269695 9.970572 -10.801616 18.225775 -15.119933 0.681108 62.787670 4.277505 9.447200 -47.401855 -23.984777 -3.922570 
0.367562 44.207188 10.899086 -24.943386 -4.148961 -5.757470 24.631821 7.925756 -0.613847 0.180528 1.629208 -3.965744 -4.140729 9.616953 -0.607367 3.528109 3.063257 9.467154 -6.882306 -6.380710 -0.327890 -59.491837 26.480721 -25.966707 -50.072895 4.401106 -5.036940 -27.640469 7.585646 21.245386 -4.868134 11.706283 -0.621928 53.528877 -23.681625 -26.187597 60.608501 -5.000000 -4.723834 10.819703 -26.451012 12.348556 8.672093 22.880474 0.983996 82.162422 -0.389524 -3.657334 -37.609810 9.612923 -10.689376 17.625996 -14.998101 0.967985 65.240578 3.660812 9.116743 -48.044876 -24.047552 -3.988749 
0.413913 43.737923 11.240191 -25.154461 -4.399814 -5.985109 24.631058 8.415075 -0.473757 0.140329 1.599829 -4.034072 -3.888201 9.770521 -0.570523 4.007507 3.295832 9.322553 -7.089184 -6.683036 -0.343467 -59.033920 26.166790 -25.563377 -50.189953 4.843966 -5.373206 -27.903873 7.923027 21.367823 -4.901320 12.223145 -0.650717 52.810436 -23.727602 -26.080395 61.107204 -5.000000 -4.495753 10.927018 -26.527174 12.179771 8.531934 23.283169 1.121656 84.069427 -0.258839 -3.546421 -37.843578 9.204771 -10.556108 17.094311 -14.848317 1.392427 67.666016 3.113624 8.779133 -48.585384 -24.200571 -4.082031 
0.468660 43.262348 11.604265 -25.374094 -4.650476 -6.202382 24.639391 8.911434 -0.351283 0.081159 1.560695 -4.112167 -3.623966 9.925540 -0.524163 4.475365 3.528677 9.168356 -7.305851 -6.975608 -0.359719 -58.599457 25.847740 -25.152887 -50.294949 5.000000 -5.714326 -28.170116 8.283708 21.521471 -4.924825 12.710748 -0.675959 52.111866 -23.801266 -25.985241 61.585270 -5.000000 -4.274872 11.035928 -26.608732 12.023626 8.416442 23.705187 1.266430 85.926430 -0.122426 -3.452072 -38.075142 8.775392 -10.444397 16.590532 -14.724586 1.810056 70.105400 2.576426 8.432653 -49.068016 -24.363430 -4.164907 
